<mxfile host="app.diagrams.net" agent="Mozilla/5.0 (Windows NT 10.0; Win64; x64) AppleWebKit/537.36 (KHTML, like Gecko) Chrome/137.0.0.0 Safari/537.36" version="27.1.6">
  <diagram name="Sivu-1" id="iF3Pjgtifc8MZnPqNoIN">
    <mxGraphModel dx="1201" dy="1168" grid="1" gridSize="10" guides="1" tooltips="1" connect="1" arrows="1" fold="1" page="0" pageScale="1" pageWidth="850" pageHeight="1100" math="0" shadow="0">
      <root>
        <mxCell id="0" />
        <mxCell id="1" parent="0" />
        <mxCell id="g0t2AwN3DNg_lfe3c00A-20" style="edgeStyle=none;curved=1;rounded=0;orthogonalLoop=1;jettySize=auto;html=1;exitX=0.5;exitY=1;exitDx=0;exitDy=0;entryX=0.5;entryY=0;entryDx=0;entryDy=0;fontSize=12;startSize=8;endSize=8;" parent="1" source="g0t2AwN3DNg_lfe3c00A-5" target="g0t2AwN3DNg_lfe3c00A-19" edge="1">
          <mxGeometry relative="1" as="geometry" />
        </mxCell>
        <mxCell id="g0t2AwN3DNg_lfe3c00A-26" value="State" style="edgeLabel;html=1;align=center;verticalAlign=middle;resizable=0;points=[];fontSize=12;" parent="g0t2AwN3DNg_lfe3c00A-20" vertex="1" connectable="0">
          <mxGeometry x="-0.1628" y="1" relative="1" as="geometry">
            <mxPoint x="17" as="offset" />
          </mxGeometry>
        </mxCell>
        <mxCell id="g0t2AwN3DNg_lfe3c00A-5" value="" style="rounded=0;whiteSpace=wrap;html=1;fillColor=#ffe6cc;strokeColor=#d79b00;" parent="1" vertex="1">
          <mxGeometry x="-210" y="-60" width="380" height="280" as="geometry" />
        </mxCell>
        <mxCell id="g0t2AwN3DNg_lfe3c00A-2" value="" style="shape=mxgraph.signs.tech.rss;html=1;pointerEvents=1;fillColor=#000000;strokeColor=none;verticalLabelPosition=bottom;verticalAlign=top;align=center;" parent="1" vertex="1">
          <mxGeometry x="50.2" y="-120" width="39.6" height="40" as="geometry" />
        </mxCell>
        <mxCell id="g0t2AwN3DNg_lfe3c00A-12" style="edgeStyle=none;curved=1;rounded=0;orthogonalLoop=1;jettySize=auto;html=1;exitX=0.5;exitY=1;exitDx=0;exitDy=0;entryX=0.5;entryY=0;entryDx=0;entryDy=0;fontSize=12;startSize=8;endSize=8;" parent="1" source="g0t2AwN3DNg_lfe3c00A-3" target="g0t2AwN3DNg_lfe3c00A-11" edge="1">
          <mxGeometry relative="1" as="geometry" />
        </mxCell>
        <mxCell id="g0t2AwN3DNg_lfe3c00A-3" value="Fetch RSS&#39;s" style="rounded=0;whiteSpace=wrap;html=1;" parent="1" vertex="1">
          <mxGeometry x="9.999999999999996" y="-14" width="120" height="60" as="geometry" />
        </mxCell>
        <mxCell id="g0t2AwN3DNg_lfe3c00A-4" value="" style="endArrow=classic;startArrow=classic;html=1;rounded=0;fontSize=12;startSize=8;endSize=8;curved=1;entryX=0.5;entryY=1;entryDx=0;entryDy=0;entryPerimeter=0;exitX=0.5;exitY=0;exitDx=0;exitDy=0;" parent="1" source="g0t2AwN3DNg_lfe3c00A-3" target="g0t2AwN3DNg_lfe3c00A-2" edge="1">
          <mxGeometry width="50" height="50" relative="1" as="geometry">
            <mxPoint x="80" y="120" as="sourcePoint" />
            <mxPoint x="130" y="70" as="targetPoint" />
          </mxGeometry>
        </mxCell>
        <mxCell id="g0t2AwN3DNg_lfe3c00A-6" value="" style="sketch=0;outlineConnect=0;fontColor=#232F3E;gradientColor=none;fillColor=#232F3D;strokeColor=none;dashed=0;verticalLabelPosition=bottom;verticalAlign=top;align=center;html=1;fontSize=12;fontStyle=0;aspect=fixed;pointerEvents=1;shape=mxgraph.aws4.json_script;" parent="1" vertex="1">
          <mxGeometry x="-190" y="-8" width="35.08" height="48" as="geometry" />
        </mxCell>
        <mxCell id="g0t2AwN3DNg_lfe3c00A-9" style="edgeStyle=none;curved=1;rounded=0;orthogonalLoop=1;jettySize=auto;html=1;exitX=1;exitY=0.5;exitDx=0;exitDy=0;entryX=0;entryY=0.5;entryDx=0;entryDy=0;fontSize=12;startSize=8;endSize=8;" parent="1" source="g0t2AwN3DNg_lfe3c00A-7" target="g0t2AwN3DNg_lfe3c00A-3" edge="1">
          <mxGeometry relative="1" as="geometry" />
        </mxCell>
        <mxCell id="g0t2AwN3DNg_lfe3c00A-7" value="Check list of RSS sources" style="rounded=0;whiteSpace=wrap;html=1;" parent="1" vertex="1">
          <mxGeometry x="-134.92000000000002" y="-14" width="120" height="60" as="geometry" />
        </mxCell>
        <mxCell id="g0t2AwN3DNg_lfe3c00A-8" value="" style="endArrow=classic;html=1;rounded=0;fontSize=12;startSize=8;endSize=8;curved=1;entryX=0;entryY=0.5;entryDx=0;entryDy=0;" parent="1" source="g0t2AwN3DNg_lfe3c00A-6" target="g0t2AwN3DNg_lfe3c00A-7" edge="1">
          <mxGeometry width="50" height="50" relative="1" as="geometry">
            <mxPoint x="-150" as="sourcePoint" />
            <mxPoint x="-100" y="-50" as="targetPoint" />
          </mxGeometry>
        </mxCell>
        <mxCell id="g0t2AwN3DNg_lfe3c00A-10" value="&lt;div style=&quot;color: #cccccc;background-color: #1f1f1f;font-family: Consolas, &#39;Courier New&#39;, monospace;font-weight: normal;font-size: 14px;line-height: 19px;white-space: pre;&quot;&gt;&lt;div&gt;&lt;span style=&quot;color: #ce9178;&quot;&gt;feed_reader&lt;/span&gt;&lt;/div&gt;&lt;/div&gt;" style="text;whiteSpace=wrap;html=1;" parent="1" vertex="1">
          <mxGeometry x="-210" y="-90" width="120" height="40" as="geometry" />
        </mxCell>
        <mxCell id="g0t2AwN3DNg_lfe3c00A-14" style="edgeStyle=none;curved=1;rounded=0;orthogonalLoop=1;jettySize=auto;html=1;exitX=0;exitY=0.5;exitDx=0;exitDy=0;entryX=1;entryY=0.5;entryDx=0;entryDy=0;fontSize=12;startSize=8;endSize=8;" parent="1" source="g0t2AwN3DNg_lfe3c00A-11" target="g0t2AwN3DNg_lfe3c00A-13" edge="1">
          <mxGeometry relative="1" as="geometry" />
        </mxCell>
        <mxCell id="g0t2AwN3DNg_lfe3c00A-23" style="edgeStyle=none;curved=1;rounded=0;orthogonalLoop=1;jettySize=auto;html=1;exitX=0.5;exitY=1;exitDx=0;exitDy=0;entryX=0.5;entryY=0;entryDx=0;entryDy=0;fontSize=12;startSize=8;endSize=8;" parent="1" source="g0t2AwN3DNg_lfe3c00A-11" target="g0t2AwN3DNg_lfe3c00A-22" edge="1">
          <mxGeometry relative="1" as="geometry" />
        </mxCell>
        <mxCell id="g0t2AwN3DNg_lfe3c00A-11" value="Check if there is any new news in RSS (using state)" style="rounded=0;whiteSpace=wrap;html=1;" parent="1" vertex="1">
          <mxGeometry x="10" y="70" width="120" height="60" as="geometry" />
        </mxCell>
        <mxCell id="g0t2AwN3DNg_lfe3c00A-17" style="edgeStyle=none;curved=1;rounded=0;orthogonalLoop=1;jettySize=auto;html=1;exitX=0.5;exitY=1;exitDx=0;exitDy=0;entryX=0.5;entryY=0;entryDx=0;entryDy=0;fontSize=12;startSize=8;endSize=8;" parent="1" source="g0t2AwN3DNg_lfe3c00A-13" target="g0t2AwN3DNg_lfe3c00A-16" edge="1">
          <mxGeometry relative="1" as="geometry" />
        </mxCell>
        <mxCell id="g0t2AwN3DNg_lfe3c00A-13" value="Extract data from new articles (id, title, summary, link, etc...)" style="rounded=0;whiteSpace=wrap;html=1;" parent="1" vertex="1">
          <mxGeometry x="-130" y="70" width="120" height="60" as="geometry" />
        </mxCell>
        <mxCell id="g0t2AwN3DNg_lfe3c00A-15" value="&lt;div style=&quot;line-height: 80%;&quot;&gt;If&lt;div&gt;new&lt;/div&gt;&lt;/div&gt;" style="text;html=1;align=center;verticalAlign=middle;whiteSpace=wrap;rounded=0;fontSize=10;rotation=-40;spacing=0;" parent="1" vertex="1">
          <mxGeometry x="-17" y="79" width="30" height="10" as="geometry" />
        </mxCell>
        <mxCell id="g0t2AwN3DNg_lfe3c00A-16" value="Store new articles in shared state" style="rounded=0;whiteSpace=wrap;html=1;" parent="1" vertex="1">
          <mxGeometry x="-130" y="150" width="120" height="60" as="geometry" />
        </mxCell>
        <mxCell id="g0t2AwN3DNg_lfe3c00A-18" value="&lt;div style=&quot;color: #cccccc;background-color: #1f1f1f;font-family: Consolas, &#39;Courier New&#39;, monospace;font-weight: normal;font-size: 14px;line-height: 19px;white-space: pre;&quot;&gt;&lt;div&gt;&lt;span style=&quot;color: #ce9178;&quot;&gt;content_extractor&lt;/span&gt;&lt;/div&gt;&lt;/div&gt;" style="text;whiteSpace=wrap;html=1;" parent="1" vertex="1">
          <mxGeometry x="-210" y="240" width="160" height="40" as="geometry" />
        </mxCell>
        <mxCell id="g0t2AwN3DNg_lfe3c00A-37" style="edgeStyle=none;curved=1;rounded=0;orthogonalLoop=1;jettySize=auto;html=1;exitX=0.5;exitY=1;exitDx=0;exitDy=0;entryX=0.5;entryY=0;entryDx=0;entryDy=0;fontSize=12;startSize=8;endSize=8;" parent="1" source="g0t2AwN3DNg_lfe3c00A-19" target="g0t2AwN3DNg_lfe3c00A-35" edge="1">
          <mxGeometry relative="1" as="geometry" />
        </mxCell>
        <mxCell id="g0t2AwN3DNg_lfe3c00A-19" value="" style="rounded=0;whiteSpace=wrap;html=1;fillColor=#dae8fc;strokeColor=#6c8ebf;" parent="1" vertex="1">
          <mxGeometry x="-210" y="270" width="380" height="280" as="geometry" />
        </mxCell>
        <mxCell id="g0t2AwN3DNg_lfe3c00A-28" style="edgeStyle=none;curved=1;rounded=0;orthogonalLoop=1;jettySize=auto;html=1;exitX=1;exitY=0.5;exitDx=0;exitDy=0;entryX=0;entryY=0.5;entryDx=0;entryDy=0;fontSize=12;startSize=8;endSize=8;" parent="1" source="g0t2AwN3DNg_lfe3c00A-21" target="g0t2AwN3DNg_lfe3c00A-27" edge="1">
          <mxGeometry relative="1" as="geometry" />
        </mxCell>
        <mxCell id="g0t2AwN3DNg_lfe3c00A-21" value="Get list of new articles from state" style="rounded=0;whiteSpace=wrap;html=1;" parent="1" vertex="1">
          <mxGeometry x="-170" y="290" width="120" height="60" as="geometry" />
        </mxCell>
        <mxCell id="g0t2AwN3DNg_lfe3c00A-22" value="" style="ellipse;whiteSpace=wrap;html=1;aspect=fixed;" parent="1" vertex="1">
          <mxGeometry x="55.000000000000014" y="165" width="30" height="30" as="geometry" />
        </mxCell>
        <mxCell id="g0t2AwN3DNg_lfe3c00A-24" value="&lt;div style=&quot;line-height: 80%;&quot;&gt;If no new news&lt;/div&gt;" style="text;html=1;align=center;verticalAlign=middle;whiteSpace=wrap;rounded=0;fontSize=10;rotation=0;spacing=0;" parent="1" vertex="1">
          <mxGeometry x="75" y="138" width="30" height="15" as="geometry" />
        </mxCell>
        <mxCell id="g0t2AwN3DNg_lfe3c00A-25" value="&lt;div style=&quot;line-height: 80%;&quot;&gt;end&lt;/div&gt;" style="text;html=1;align=center;verticalAlign=middle;whiteSpace=wrap;rounded=0;fontSize=10;rotation=0;spacing=0;" parent="1" vertex="1">
          <mxGeometry x="55" y="172" width="30" height="15" as="geometry" />
        </mxCell>
        <mxCell id="g0t2AwN3DNg_lfe3c00A-30" style="edgeStyle=none;curved=1;rounded=0;orthogonalLoop=1;jettySize=auto;html=1;exitX=0.5;exitY=1;exitDx=0;exitDy=0;entryX=0.5;entryY=0;entryDx=0;entryDy=0;fontSize=12;startSize=8;endSize=8;" parent="1" source="g0t2AwN3DNg_lfe3c00A-27" target="g0t2AwN3DNg_lfe3c00A-29" edge="1">
          <mxGeometry relative="1" as="geometry" />
        </mxCell>
        <mxCell id="marYJ32MjS7BlcwJdSiv-2" value="" style="edgeStyle=none;curved=1;rounded=0;orthogonalLoop=1;jettySize=auto;html=1;fontSize=12;startSize=8;endSize=8;" parent="1" source="g0t2AwN3DNg_lfe3c00A-27" target="g0t2AwN3DNg_lfe3c00A-21" edge="1">
          <mxGeometry relative="1" as="geometry" />
        </mxCell>
        <mxCell id="g0t2AwN3DNg_lfe3c00A-27" value="Visit original article website" style="rounded=0;whiteSpace=wrap;html=1;" parent="1" vertex="1">
          <mxGeometry y="290" width="120" height="60" as="geometry" />
        </mxCell>
        <mxCell id="g0t2AwN3DNg_lfe3c00A-32" style="edgeStyle=none;curved=1;rounded=0;orthogonalLoop=1;jettySize=auto;html=1;exitX=0;exitY=0.5;exitDx=0;exitDy=0;fontSize=12;startSize=8;endSize=8;" parent="1" source="g0t2AwN3DNg_lfe3c00A-29" target="g0t2AwN3DNg_lfe3c00A-31" edge="1">
          <mxGeometry relative="1" as="geometry" />
        </mxCell>
        <mxCell id="g0t2AwN3DNg_lfe3c00A-29" value="Parse the article (content blocks (text, images, list, etc.))" style="rounded=0;whiteSpace=wrap;html=1;" parent="1" vertex="1">
          <mxGeometry y="380" width="120" height="60" as="geometry" />
        </mxCell>
        <mxCell id="g0t2AwN3DNg_lfe3c00A-34" style="edgeStyle=none;curved=1;rounded=0;orthogonalLoop=1;jettySize=auto;html=1;exitX=0.5;exitY=1;exitDx=0;exitDy=0;entryX=0.5;entryY=0;entryDx=0;entryDy=0;fontSize=12;startSize=8;endSize=8;" parent="1" source="g0t2AwN3DNg_lfe3c00A-31" target="g0t2AwN3DNg_lfe3c00A-33" edge="1">
          <mxGeometry relative="1" as="geometry" />
        </mxCell>
        <mxCell id="g0t2AwN3DNg_lfe3c00A-31" value="Convert it to markdown" style="rounded=0;whiteSpace=wrap;html=1;" parent="1" vertex="1">
          <mxGeometry x="-170" y="380" width="120" height="60" as="geometry" />
        </mxCell>
        <mxCell id="g0t2AwN3DNg_lfe3c00A-33" value="Store in the state (list)" style="rounded=0;whiteSpace=wrap;html=1;" parent="1" vertex="1">
          <mxGeometry x="-170" y="470" width="120" height="60" as="geometry" />
        </mxCell>
        <mxCell id="g0t2AwN3DNg_lfe3c00A-35" value="" style="rounded=0;whiteSpace=wrap;html=1;fillColor=#f8cecc;strokeColor=#b85450;" parent="1" vertex="1">
          <mxGeometry x="-210" y="600" width="380" height="280" as="geometry" />
        </mxCell>
        <mxCell id="g0t2AwN3DNg_lfe3c00A-36" value="&lt;div style=&quot;color: #cccccc;background-color: #1f1f1f;font-family: Consolas, &#39;Courier New&#39;, monospace;font-weight: normal;font-size: 14px;line-height: 19px;white-space: pre;&quot;&gt;&lt;div&gt;&lt;span style=&quot;color: #ce9178;&quot;&gt;news_storer&lt;/span&gt;&lt;/div&gt;&lt;/div&gt;" style="text;whiteSpace=wrap;html=1;" parent="1" vertex="1">
          <mxGeometry x="-210" y="570" width="120" height="40" as="geometry" />
        </mxCell>
        <mxCell id="g0t2AwN3DNg_lfe3c00A-38" value="State" style="edgeLabel;html=1;align=center;verticalAlign=middle;resizable=0;points=[];fontSize=12;" parent="1" vertex="1" connectable="0">
          <mxGeometry x="-2" y="575" as="geometry" />
        </mxCell>
        <mxCell id="marYJ32MjS7BlcwJdSiv-1" value="For loop" style="edgeLabel;html=1;align=center;verticalAlign=middle;resizable=0;points=[];fontSize=12;rotation=-40;" parent="1" vertex="1" connectable="0">
          <mxGeometry x="3" y="295" as="geometry" />
        </mxCell>
        <mxCell id="marYJ32MjS7BlcwJdSiv-3" value="Get list of fetched articles from state" style="rounded=0;whiteSpace=wrap;html=1;" parent="1" vertex="1">
          <mxGeometry x="-170" y="620" width="120" height="60" as="geometry" />
        </mxCell>
        <mxCell id="marYJ32MjS7BlcwJdSiv-4" value="normalize" style="rounded=0;whiteSpace=wrap;html=1;" parent="1" vertex="1">
          <mxGeometry x="-2" y="620" width="120" height="60" as="geometry" />
        </mxCell>
        <mxCell id="marYJ32MjS7BlcwJdSiv-5" value="calc hash" style="rounded=0;whiteSpace=wrap;html=1;" parent="1" vertex="1">
          <mxGeometry y="720" width="120" height="60" as="geometry" />
        </mxCell>
      </root>
    </mxGraphModel>
  </diagram>
</mxfile>
